<svg width="48" height="48" viewBox="0 0 48 48" fill="none" xmlns="http://www.w3.org/2000/svg">
<rect width="48" height="48" rx="8" fill="#3A633B"/>
<path d="M30.6667 14C29.7826 14 28.9348 14.3512 28.3096 14.9763C27.6845 15.6014 27.3333 16.4493 27.3333 17.3333V30.6667C27.3333 31.5507 27.6845 32.3986 28.3096 33.0237C28.9348 33.6488 29.7826 34 30.6667 34C31.5507 34 32.3986 33.6488 33.0237 33.0237C33.6488 32.3986 34 31.5507 34 30.6667C34 29.7826 33.6488 28.9348 33.0237 28.3096C32.3986 27.6845 31.5507 27.3333 30.6667 27.3333H17.3333C16.4493 27.3333 15.6014 27.6845 14.9763 28.3096C14.3512 28.9348 14 29.7826 14 30.6667C14 31.5507 14.3512 32.3986 14.9763 33.0237C15.6014 33.6488 16.4493 34 17.3333 34C18.2174 34 19.0652 33.6488 19.6904 33.0237C20.3155 32.3986 20.6667 31.5507 20.6667 30.6667V17.3333C20.6667 16.4493 20.3155 15.6014 19.6904 14.9763C19.0652 14.3512 18.2174 14 17.3333 14C16.4493 14 15.6014 14.3512 14.9763 14.9763C14.3512 15.6014 14 16.4493 14 17.3333C14 18.2174 14.3512 19.0652 14.9763 19.6904C15.6014 20.3155 16.4493 20.6667 17.3333 20.6667H30.6667C31.5507 20.6667 32.3986 20.3155 33.0237 19.6904C33.6488 19.0652 34 18.2174 34 17.3333C34 16.4493 33.6488 15.6014 33.0237 14.9763C32.3986 14.3512 31.5507 14 30.6667 14Z" stroke="white" stroke-width="2" stroke-linecap="round" stroke-linejoin="round"/>
</svg>
