<svg width="49" height="48" viewBox="0 0 49 48" fill="none" xmlns="http://www.w3.org/2000/svg">
<rect x="0.5" width="48" height="48" rx="8" fill="#FF5E5E"/>
<path d="M32.5999 23.3892C32.2714 22.9725 31.8715 22.6114 31.5001 22.2503C30.5431 21.4169 29.4576 20.8197 28.5435 19.9447C26.4153 17.9168 25.944 14.5695 27.3009 12C25.944 12.3195 24.7585 13.0417 23.7444 13.8334C20.0451 16.7224 18.5882 21.8197 20.3307 26.1948C20.3879 26.3337 20.445 26.4726 20.445 26.6532C20.445 26.9588 20.2307 27.2365 19.9451 27.3477C19.6166 27.4866 19.2738 27.4032 19.0024 27.181C18.9208 27.1154 18.853 27.0353 18.8024 26.9449C17.1884 24.9587 16.9313 22.1114 18.0169 19.8336C15.6316 21.7225 14.3318 24.917 14.5175 27.931C14.6032 28.6255 14.6889 29.3199 14.9317 30.0144C15.1317 30.8478 15.5173 31.6811 15.9458 32.4172C17.4884 34.8201 20.1593 36.5424 23.0302 36.8896C26.0868 37.2646 29.3576 36.7229 31.7001 34.6673C34.3139 32.3617 35.228 28.6671 33.8854 25.5004L33.6997 25.1393C33.3998 24.5004 32.5999 23.3892 32.5999 23.3892ZM28.0865 32.1395C27.6865 32.4728 27.0295 32.8339 26.5153 32.9728C24.9156 33.5284 23.3159 32.7506 22.3732 31.8339C24.0729 31.445 25.087 30.2227 25.3869 28.9866C25.6298 27.8755 25.1727 26.9588 24.987 25.8893C24.8156 24.8615 24.8442 23.9865 25.2298 23.0281C25.5012 23.5559 25.7869 24.0837 26.1297 24.5004C27.2295 25.8893 28.9577 26.5004 29.3291 28.3894C29.3862 28.5838 29.4148 28.7783 29.4148 28.9866C29.4576 30.1255 28.9434 31.3756 28.0865 32.1395Z" fill="white"/>
</svg>
