<svg width="48" height="48" viewBox="0 0 48 48" fill="none" xmlns="http://www.w3.org/2000/svg">
<rect width="48" height="48" rx="8" fill="#00427D"/>
<path d="M18 23H20.4V25.3333H18V23ZM18 27.6667H20.4V30H18V27.6667ZM22.8 23H25.2V25.3333H22.8V23ZM22.8 27.6667H25.2V30H22.8V27.6667ZM27.6 23H30V25.3333H27.6V23ZM27.6 27.6667H30V30H27.6V27.6667Z" fill="white"/>
<path d="M16.2222 35H31.7778C33.0033 35 34 34.0133 34 32.8V17.4C34 16.1867 33.0033 15.2 31.7778 15.2H29.5556V13H27.3333V15.2H20.6667V13H18.4444V15.2H16.2222C14.9967 15.2 14 16.1867 14 17.4V32.8C14 34.0133 14.9967 35 16.2222 35ZM31.7778 19.6L31.7789 32.8H16.2222V19.6H31.7778Z" fill="white"/>
</svg>
